<?xml version="1.0" encoding="utf-8"?>
<!-- Generator: Adobe Illustrator 14.0.0, SVG Export Plug-In . SVG Version: 6.00 Build 43363)  -->
<!DOCTYPE svg PUBLIC "-//W3C//DTD SVG 1.1//EN" "http://www.w3.org/Graphics/SVG/1.1/DTD/svg11.dtd">
<svg version="1.1" xmlns="http://www.w3.org/2000/svg" xmlns:xlink="http://www.w3.org/1999/xlink" x="0px" y="0px"
	 width="337.157px" height="1004px" viewBox="0 0 337.157 1004" enable-background="new 0 0 337.157 1004" xml:space="preserve">
<g id="sm">
	<g id="grid" display="none">
		<g display="inline">
			<g>
				<rect y="1020" fill="none" stroke="#333333" stroke-width="0.2499" width="340" height="340"/>
			</g>
			<g>
				<rect y="680" fill="none" stroke="#333333" stroke-width="0.2499" width="340" height="340"/>
			</g>
			<g>
				<rect y="340" fill="none" stroke="#333333" stroke-width="0.2499" width="340" height="340"/>
			</g>
			<g>
				<rect fill="none" stroke="#333333" stroke-width="0.2499" width="340" height="340"/>
			</g>
		</g>
	</g>
	<g id="logo_sm">
		<text transform="matrix(1 0 0 1 54.2778 731.3428)" fill="#333333" font-family="'HouschkaPro-ExtraBold'" font-size="72">S</text>
		<text transform="matrix(1 0 0 1 55.8257 806.3428)" fill="#333333" font-family="'HouschkaPro-ExtraBold'" font-size="72">L</text>
		<g>
			<rect y="740.223" fill="#333333" width="150.035" height="8"/>
		</g>
		<g>
			<path fill="#333333" d="M113.551,788.019c-3.024,0-5.484-2.46-5.484-5.482v-76.623c0-3.024,2.46-5.484,5.484-5.484
				c3.024,0,5.484,2.46,5.484,5.484v76.623C119.035,785.559,116.575,788.019,113.551,788.019L113.551,788.019z"/>
			<path fill="#333333" d="M113.551,701.427c2.477,0,4.484,2.008,4.484,4.484v76.623c0,2.477-2.008,4.482-4.484,4.482
				c-2.476,0-4.484-2.008-4.484-4.482v-76.623C109.066,703.435,111.074,701.427,113.551,701.427 M113.551,699.427
				c-3.575,0-6.484,2.909-6.484,6.484v76.623c0,3.575,2.909,6.482,6.484,6.482c3.575,0,6.484-2.907,6.484-6.482v-76.623
				C120.035,702.336,117.126,699.427,113.551,699.427L113.551,699.427z"/>
		</g>
		<g>
			<rect x="40" y="734.223" fill="#333333" width="9" height="20"/>
		</g>
		<g>
			<rect x="99.035" y="734.223" fill="#333333" width="9" height="20"/>
		</g>
		<g>
			<path fill="#333333" d="M126.551,775.02c-2.749,0-4.984-1.647-4.984-3.676v-54.242c0-2.023,2.235-3.674,4.984-3.674
				s4.984,1.648,4.984,3.674v54.242C131.535,773.37,129.3,775.02,126.551,775.02L126.551,775.02z"/>
			<path fill="#333333" d="M126.551,713.928c2.477,0,4.484,1.42,4.484,3.174v54.242c0,1.754-2.008,3.176-4.484,3.176
				c-2.476,0-4.484-1.422-4.484-3.176v-54.242C122.066,715.348,124.074,713.928,126.551,713.928 M126.551,712.928
				c-3.075,0-5.484,1.833-5.484,4.174v54.242c0,2.342,2.409,4.176,5.484,4.176c3.075,0,5.484-1.834,5.484-4.176v-54.242
				C132.035,714.761,129.626,712.928,126.551,712.928L126.551,712.928z"/>
		</g>
		<g>
			<path fill="#333333" d="M35.551,787.52c-2.749,0-4.984-2.234-4.984-4.982v-76.623c0-2.748,2.235-4.984,4.984-4.984
				s4.984,2.236,4.984,4.984v76.623C40.535,785.283,38.3,787.52,35.551,787.52L35.551,787.52z"/>
			<path fill="#333333" d="M35.551,701.428c2.477,0,4.484,2.008,4.484,4.484v76.623c0,2.477-2.008,4.482-4.484,4.482
				c-2.476,0-4.484-2.008-4.484-4.482v-76.623C31.066,703.436,33.074,701.428,35.551,701.428 M35.551,700.428
				c-3.024,0-5.484,2.46-5.484,5.484v76.623c0,3.022,2.46,5.482,5.484,5.482c3.024,0,5.484-2.46,5.484-5.482v-76.623
				C41.035,702.888,38.575,700.428,35.551,700.428L35.551,700.428z"/>
		</g>
		<g>
			<path fill="#333333" d="M23.551,775.02c-2.749,0-4.984-1.647-4.984-3.676v-54.242c0-2.023,2.235-3.674,4.984-3.674
				s4.984,1.648,4.984,3.674v54.242C28.535,773.37,26.3,775.02,23.551,775.02L23.551,775.02z"/>
			<path fill="#333333" d="M23.551,713.928c2.477,0,4.484,1.42,4.484,3.174v54.242c0,1.754-2.008,3.176-4.484,3.176
				c-2.476,0-4.484-1.422-4.484-3.176v-54.242C19.066,715.348,21.074,713.928,23.551,713.928 M23.551,712.928
				c-3.075,0-5.484,1.833-5.484,4.174v54.242c0,2.342,2.409,4.176,5.484,4.176c3.075,0,5.484-1.834,5.484-4.176v-54.242
				C29.035,714.761,26.626,712.928,23.551,712.928L23.551,712.928z"/>
		</g>
	</g>
</g>
<g id="md">
	<g id="logo_md">
		<text transform="matrix(1 0 0 1 65.9585 374.3428)" fill="#333333" font-family="'HouschkaPro-ExtraBold'" font-size="48">STRONG</text>
		<text transform="matrix(1 0 0 1 69.439 434.3428)" fill="#333333" font-family="'HouschkaPro-ExtraBold'" font-size="48">L</text>
		<text transform="matrix(1 0 0 1 97.1348 434.3428)" fill="#333333" font-family="'HouschkaPro-ExtraBold'" font-size="48">IFTERS</text>
		<g>
			<rect y="383.223" fill="#333333" width="336.036" height="8"/>
		</g>
		<g>
			<path fill="#333333" d="M296.551,431.019c-3.024,0-5.484-2.46-5.484-5.482v-76.623c0-3.024,2.46-5.484,5.484-5.484
				c3.023,0,5.484,2.46,5.484,5.484v76.623C302.036,428.559,299.575,431.019,296.551,431.019L296.551,431.019z"/>
			<path fill="#333333" d="M296.551,344.427c2.477,0,4.484,2.008,4.484,4.484v76.623c0,2.477-2.01,4.482-4.484,4.482
				c-2.477,0-4.484-2.008-4.484-4.482v-76.623C292.066,346.435,294.075,344.427,296.551,344.427 M296.551,342.427
				c-3.575,0-6.484,2.909-6.484,6.484v76.623c0,3.575,2.909,6.482,6.484,6.482c3.574,0,6.484-2.907,6.484-6.482v-76.623
				C303.036,345.336,300.125,342.427,296.551,342.427L296.551,342.427z"/>
		</g>
		<g>
			<rect x="43" y="377.223" fill="#333333" width="9" height="20"/>
		</g>
		<g>
			<rect x="282.036" y="377.223" fill="#333333" width="9" height="20"/>
		</g>
		<g>
			<path fill="#333333" d="M309.551,418.02c-2.748,0-4.984-1.647-4.984-3.676v-54.242c0-2.023,2.236-3.674,4.984-3.674
				s4.984,1.648,4.984,3.674v54.242C314.536,416.37,312.299,418.02,309.551,418.02L309.551,418.02z"/>
			<path fill="#333333" d="M309.551,356.928c2.477,0,4.484,1.42,4.484,3.174v54.242c0,1.754-2.01,3.176-4.484,3.176
				c-2.477,0-4.484-1.422-4.484-3.176v-54.242C305.066,358.348,307.075,356.928,309.551,356.928 M309.551,355.928
				c-3.075,0-5.484,1.833-5.484,4.174v54.242c0,2.342,2.409,4.176,5.484,4.176c3.074,0,5.484-1.834,5.484-4.176v-54.242
				C315.036,357.761,312.625,355.928,309.551,355.928L309.551,355.928z"/>
		</g>
		<g>
			<path fill="#333333" d="M38.551,430.52c-2.748,0-4.984-2.234-4.984-4.982v-76.623c0-2.748,2.236-4.984,4.984-4.984
				c2.748,0,4.984,2.236,4.984,4.984v76.623C43.535,428.283,41.299,430.52,38.551,430.52L38.551,430.52z"/>
			<path fill="#333333" d="M38.551,344.428c2.477,0,4.484,2.008,4.484,4.484v76.623c0,2.477-2.008,4.484-4.484,4.484
				c-2.476,0-4.484-2.01-4.484-4.484v-76.623C34.066,346.436,36.074,344.428,38.551,344.428 M38.551,343.428
				c-3.024,0-5.484,2.461-5.484,5.484v76.623c0,3.022,2.46,5.484,5.484,5.484c3.024,0,5.484-2.462,5.484-5.484v-76.623
				C44.035,345.889,41.575,343.428,38.551,343.428L38.551,343.428z"/>
		</g>
		<g>
			<path fill="#333333" d="M26.551,418.02c-2.748,0-4.984-1.647-4.984-3.676v-54.242c0-2.023,2.236-3.674,4.984-3.674
				c2.748,0,4.984,1.648,4.984,3.674v54.242C31.535,416.37,29.299,418.02,26.551,418.02L26.551,418.02z"/>
			<path fill="#333333" d="M26.551,356.928c2.477,0,4.484,1.42,4.484,3.174v54.242c0,1.754-2.008,3.176-4.484,3.176
				c-2.476,0-4.484-1.422-4.484-3.176v-54.242C22.066,358.348,24.074,356.928,26.551,356.928 M26.551,355.928
				c-3.075,0-5.484,1.833-5.484,4.174v54.242c0,2.342,2.409,4.176,5.484,4.176c3.075,0,5.484-1.834,5.484-4.176v-54.242
				C32.035,357.761,29.626,355.928,26.551,355.928L26.551,355.928z"/>
		</g>
	</g>
</g>
<g id="lg">
	<g id="logo_lg">
		<text transform="matrix(1 0 0 1 67.0806 96.3428)" fill="#333333" font-family="'HouschkaPro-ExtraBold'" font-size="48">STRONG</text>
		<text transform="matrix(1 0 0 1 70.561 156.3428)" fill="#333333" font-family="'HouschkaPro-ExtraBold'" font-size="48">L</text>
		<text transform="matrix(1 0 0 1 98.2568 156.3428)" fill="#333333" font-family="'HouschkaPro-ExtraBold'" font-size="48">IFTERS</text>
		<text transform="matrix(1 0 0 1 140.8384 180.3428)" fill="#333333" font-family="'HouschkaPro-ExtraBold'" font-size="11">EST. 2015</text>
		<g>
			<g>
				<polygon fill="#333333" points="238.659,31.189 245.518,35.672 237.355,36.411 235.213,44.32 231.988,36.787 223.805,37.19 
					229.974,31.797 227.058,24.139 234.095,28.338 240.478,23.2 				"/>
			</g>
			<g>
				<polygon fill="#333333" points="206.01,14.896 213.881,17.178 206.292,20.271 206.554,28.461 201.269,22.199 193.56,24.979 
					197.883,18.017 192.855,11.546 200.812,13.504 205.415,6.725 				"/>
			</g>
			<g>
				<polygon fill="#333333" points="170.025,8.86 178.219,8.741 171.866,13.918 174.511,21.674 167.625,17.23 161.066,22.143 
					163.165,14.221 156.465,9.503 164.647,9.049 167.066,1.22 				"/>
			</g>
			<g>
				<polygon fill="#333333" points="133.848,13.609 141.648,11.1 137.086,17.907 141.883,24.551 134,22.314 129.164,28.93 
					128.854,20.741 121.068,18.188 128.76,15.361 128.784,7.167 				"/>
			</g>
			<g>
				<polygon fill="#333333" points="100.639,28.728 107.366,24.047 104.993,31.891 111.523,36.842 103.331,37.008 100.639,44.748 
					97.95,37.008 89.756,36.842 96.287,31.891 93.914,24.047 				"/>
			</g>
		</g>
		<g>
			<g>
				<polygon fill="#333333" points="96.619,188.776 89.759,184.294 97.919,183.556 100.064,175.646 103.289,183.181 
					111.472,182.776 105.302,188.169 108.218,195.828 101.182,191.628 94.798,196.767 				"/>
			</g>
			<g>
				<polygon fill="#333333" points="129.266,205.07 121.396,202.788 128.984,199.696 128.722,191.507 134.007,197.769 
					141.716,194.989 137.394,201.95 142.42,208.422 134.464,206.463 129.862,213.242 				"/>
			</g>
			<g>
				<polygon fill="#333333" points="165.252,211.106 157.058,211.226 163.41,206.05 160.765,198.296 167.65,202.737 
					174.209,197.825 172.111,205.747 178.811,210.466 170.629,210.919 168.211,218.748 				"/>
			</g>
			<g>
				<polygon fill="#333333" points="201.428,206.358 193.629,208.867 198.189,202.061 193.393,195.419 201.277,197.653 
					206.113,191.038 206.422,199.227 214.209,201.782 206.516,204.606 206.493,212.801 				"/>
			</g>
			<g>
				<polygon fill="#333333" points="234.637,191.241 227.911,195.921 230.284,188.077 223.754,183.128 231.947,182.96 
					234.637,175.221 237.329,182.96 245.52,183.128 238.991,188.077 241.363,195.921 				"/>
			</g>
		</g>
		<g>
			<rect y="105.223" fill="#333333" width="337.157" height="8"/>
		</g>
		<g>
			<path fill="#333333" d="M297.672,153.019c-3.023,0-5.483-2.46-5.483-5.484V70.911c0-3.024,2.46-5.484,5.483-5.484
				c3.024,0,5.484,2.46,5.484,5.484v76.623C303.157,150.558,300.697,153.019,297.672,153.019L297.672,153.019z"/>
			<path fill="#333333" d="M297.672,66.427c2.478,0,4.484,2.008,4.484,4.484v76.623c0,2.477-2.009,4.484-4.484,4.484
				c-2.477,0-4.483-2.008-4.483-4.484V70.911C293.188,68.435,295.196,66.427,297.672,66.427 M297.672,64.427
				c-3.574,0-6.483,2.909-6.483,6.484v76.623c0,3.576,2.909,6.484,6.483,6.484c3.576,0,6.484-2.909,6.484-6.484V70.911
				C304.157,67.335,301.249,64.427,297.672,64.427L297.672,64.427z"/>
		</g>
		<g>
			<rect x="44.122" y="99.223" fill="#333333" width="9" height="20"/>
		</g>
		<g>
			<rect x="283.157" y="99.223" fill="#333333" width="9" height="20"/>
		</g>
		<g>
			<path fill="#333333" d="M310.672,140.02c-2.748,0-4.983-1.649-4.983-3.676V82.102c0-2.026,2.235-3.674,4.983-3.674
				s4.984,1.648,4.984,3.674v54.242C315.657,138.371,313.42,140.02,310.672,140.02L310.672,140.02z"/>
			<path fill="#333333" d="M310.672,78.928c2.478,0,4.484,1.42,4.484,3.174v54.242c0,1.754-2.009,3.176-4.484,3.176
				c-2.477,0-4.483-1.422-4.483-3.176V82.102C306.188,80.348,308.196,78.928,310.672,78.928 M310.672,77.928
				c-3.074,0-5.483,1.833-5.483,4.174v54.242c0,2.342,2.409,4.176,5.483,4.176c3.076,0,5.484-1.834,5.484-4.176V82.102
				C316.157,79.761,313.749,77.928,310.672,77.928L310.672,77.928z"/>
		</g>
		<g>
			<path fill="#333333" d="M39.673,152.52c-2.749,0-4.984-2.236-4.984-4.984V70.912c0-2.749,2.236-4.984,4.984-4.984
				s4.984,2.236,4.984,4.984v76.623C44.657,150.284,42.421,152.52,39.673,152.52L39.673,152.52z"/>
			<path fill="#333333" d="M39.673,66.428c2.477,0,4.484,2.008,4.484,4.484v76.623c0,2.477-2.008,4.484-4.484,4.484
				s-4.484-2.008-4.484-4.484V70.912C35.188,68.436,37.196,66.428,39.673,66.428 M39.673,65.428c-3.024,0-5.484,2.46-5.484,5.484
				v76.623c0,3.024,2.46,5.484,5.484,5.484s5.484-2.46,5.484-5.484V70.912C45.157,67.888,42.697,65.428,39.673,65.428L39.673,65.428
				z"/>
		</g>
		<g>
			<path fill="#333333" d="M27.673,140.02c-2.749,0-4.984-1.649-4.984-3.676V82.102c0-2.026,2.236-3.674,4.984-3.674
				s4.984,1.648,4.984,3.674v54.242C32.657,138.371,30.421,140.02,27.673,140.02L27.673,140.02z"/>
			<path fill="#333333" d="M27.673,78.928c2.477,0,4.484,1.42,4.484,3.174v54.242c0,1.754-2.008,3.176-4.484,3.176
				s-4.484-1.422-4.484-3.176V82.102C23.188,80.348,25.196,78.928,27.673,78.928 M27.673,77.928c-3.075,0-5.484,1.833-5.484,4.174
				v54.242c0,2.342,2.409,4.176,5.484,4.176c3.075,0,5.484-1.834,5.484-4.176V82.102C33.157,79.761,30.748,77.928,27.673,77.928
				L27.673,77.928z"/>
		</g>
	</g>
</g>
</svg>
