<?xml version="1.0" encoding="utf-8"?>
<!-- Generator: Adobe Illustrator 14.0.0, SVG Export Plug-In . SVG Version: 6.00 Build 43363)  -->
<!DOCTYPE svg PUBLIC "-//W3C//DTD SVG 1.1//EN" "http://www.w3.org/Graphics/SVG/1.1/DTD/svg11.dtd">
<svg version="1.1" xmlns="http://www.w3.org/2000/svg" xmlns:xlink="http://www.w3.org/1999/xlink" x="0px" y="0px"
	 width="334.157px" height="1004px" viewBox="0 0 334.157 1004" style="enable-background:new 0 0 334.157 1004;"
	 xml:space="preserve">
<g id="grid" style="display:none;">
	<g style="display:inline;">
		<g>
			<g>
				<rect x="1339.157" y="1339.157" style="fill:none;stroke:#000000;stroke-width:0.2506;" width="335" height="335"/>
			</g>
			<g>
				<rect x="1004.157" y="1339.157" style="fill:none;stroke:#000000;stroke-width:0.2506;" width="335" height="335"/>
			</g>
			<g>
				<rect x="669.157" y="1339.157" style="fill:none;stroke:#000000;stroke-width:0.2506;" width="335" height="335"/>
			</g>
			<g>
				<rect x="334.157" y="1339.157" style="fill:none;stroke:#000000;stroke-width:0.2506;" width="335" height="335"/>
			</g>
			<g>
				<rect x="-0.843" y="1339.157" style="fill:none;stroke:#000000;stroke-width:0.2506;" width="335" height="335"/>
			</g>
		</g>
		<g>
			<g>
				<rect x="1339.157" y="1004.157" style="fill:none;stroke:#000000;stroke-width:0.2506;" width="335" height="335"/>
			</g>
			<g>
				<rect x="1004.157" y="1004.157" style="fill:none;stroke:#000000;stroke-width:0.2506;" width="335" height="335"/>
			</g>
			<g>
				<rect x="669.157" y="1004.157" style="fill:none;stroke:#000000;stroke-width:0.2506;" width="335" height="335"/>
			</g>
			<g>
				<rect x="334.157" y="1004.157" style="fill:none;stroke:#000000;stroke-width:0.2506;" width="335" height="335"/>
			</g>
			<g>
				<rect x="-0.843" y="1004.157" style="fill:none;stroke:#000000;stroke-width:0.2506;" width="335" height="335"/>
			</g>
		</g>
		<g>
			<g>
				<rect x="1339.157" y="669.157" style="fill:none;stroke:#000000;stroke-width:0.2506;" width="335" height="335"/>
			</g>
			<g>
				<rect x="1004.157" y="669.157" style="fill:none;stroke:#000000;stroke-width:0.2506;" width="335" height="335"/>
			</g>
			<g>
				<rect x="669.157" y="669.157" style="fill:none;stroke:#000000;stroke-width:0.2506;" width="335" height="335"/>
			</g>
			<g>
				<rect x="334.157" y="669.157" style="fill:none;stroke:#000000;stroke-width:0.2506;" width="335" height="335"/>
			</g>
			<g>
				<rect x="-0.843" y="669.157" style="fill:none;stroke:#000000;stroke-width:0.2506;" width="335" height="335"/>
			</g>
		</g>
		<g>
			<g>
				<rect x="1339.157" y="334.157" style="fill:none;stroke:#000000;stroke-width:0.2506;" width="335" height="335"/>
			</g>
			<g>
				<rect x="1004.157" y="334.157" style="fill:none;stroke:#000000;stroke-width:0.2506;" width="335" height="335"/>
			</g>
			<g>
				<rect x="669.157" y="334.157" style="fill:none;stroke:#000000;stroke-width:0.2506;" width="335" height="335"/>
			</g>
			<g>
				<rect x="334.157" y="334.157" style="fill:none;stroke:#000000;stroke-width:0.2506;" width="335" height="335"/>
			</g>
			<g>
				<rect x="-0.843" y="334.157" style="fill:none;stroke:#000000;stroke-width:0.2506;" width="335" height="335"/>
			</g>
		</g>
		<g>
			<g>
				<rect x="1339.157" y="-0.843" style="fill:none;stroke:#000000;stroke-width:0.2506;" width="335" height="335"/>
			</g>
			<g>
				<rect x="1004.157" y="-0.843" style="fill:none;stroke:#000000;stroke-width:0.2506;" width="335" height="335"/>
			</g>
			<g>
				<rect x="669.157" y="-0.843" style="fill:none;stroke:#000000;stroke-width:0.2506;" width="335" height="335"/>
			</g>
			<g>
				<rect x="334.157" y="-0.843" style="fill:none;stroke:#000000;stroke-width:0.2506;" width="335" height="335"/>
			</g>
			<g>
				<rect x="-0.843" y="-0.843" style="fill:none;stroke:#000000;stroke-width:0.2506;" width="335" height="335"/>
			</g>
		</g>
	</g>
</g>
<g id="logo_sm">
	<text transform="matrix(1 0 0 1 58.3999 720.3428)"><tspan x="0" y="0" style="fill:#333333; font-family:'HouschkaPro-ExtraBold'; font-size:72;">S</tspan><tspan x="1.548" y="75" style="fill:#333333; font-family:'HouschkaPro-ExtraBold'; font-size:72;">L</tspan></text>
	<g>
		<rect x="1.122" y="729.223" style="fill:#333333;" width="153.035" height="8"/>
	</g>
	<g>
		<path style="fill:#333333;" d="M117.673,777.019c-3.024,0-5.484-2.46-5.484-5.484v-76.623c0-3.024,2.46-5.484,5.484-5.484
			s5.484,2.46,5.484,5.484v76.623C123.157,774.559,120.697,777.019,117.673,777.019L117.673,777.019z"/>
		<path style="fill:#333333;" d="M117.673,690.427c2.477,0,4.484,2.008,4.484,4.484v76.623c0,2.477-2.008,4.484-4.484,4.484
			s-4.484-2.008-4.484-4.484v-76.623C113.188,692.435,115.196,690.427,117.673,690.427 M117.673,688.427
			c-3.575,0-6.484,2.909-6.484,6.484v76.623c0,3.575,2.909,6.484,6.484,6.484s6.484-2.909,6.484-6.484v-76.623
			C124.157,691.336,121.248,688.427,117.673,688.427L117.673,688.427z"/>
	</g>
	<g>
		<rect x="44.122" y="723.223" style="fill:#333333;" width="9" height="20"/>
	</g>
	<g>
		<rect x="103.157" y="723.223" style="fill:#333333;" width="9" height="20"/>
	</g>
	<g>
		<path style="fill:#333333;" d="M130.673,764.02c-2.749,0-4.984-1.649-4.984-3.676v-54.242c0-2.025,2.235-3.674,4.984-3.674
			s4.984,1.648,4.984,3.674v54.242C135.657,762.37,133.422,764.02,130.673,764.02L130.673,764.02z"/>
		<path style="fill:#333333;" d="M130.673,702.928c2.477,0,4.484,1.42,4.484,3.174v54.242c0,1.754-2.008,3.176-4.484,3.176
			s-4.484-1.422-4.484-3.176v-54.242C126.188,704.348,128.196,702.928,130.673,702.928 M130.673,701.928
			c-3.075,0-5.484,1.833-5.484,4.174v54.242c0,2.342,2.409,4.176,5.484,4.176s5.484-1.834,5.484-4.176v-54.242
			C136.157,703.761,133.748,701.928,130.673,701.928L130.673,701.928z"/>
	</g>
	<g>
		<path style="fill:#333333;" d="M39.673,776.52c-2.749,0-4.984-2.236-4.984-4.984v-76.623c0-2.748,2.235-4.984,4.984-4.984
			s4.984,2.236,4.984,4.984v76.623C44.657,774.283,42.422,776.52,39.673,776.52L39.673,776.52z"/>
		<path style="fill:#333333;" d="M39.673,690.428c2.477,0,4.484,2.008,4.484,4.484v76.623c0,2.477-2.008,4.484-4.484,4.484
			s-4.484-2.008-4.484-4.484v-76.623C35.188,692.436,37.196,690.428,39.673,690.428 M39.673,689.428
			c-3.024,0-5.484,2.46-5.484,5.484v76.623c0,3.024,2.46,5.484,5.484,5.484s5.484-2.46,5.484-5.484v-76.623
			C45.157,691.888,42.697,689.428,39.673,689.428L39.673,689.428z"/>
	</g>
	<g>
		<path style="fill:#333333;" d="M27.673,764.02c-2.749,0-4.984-1.649-4.984-3.676v-54.242c0-2.025,2.235-3.674,4.984-3.674
			s4.984,1.648,4.984,3.674v54.242C32.657,762.37,30.422,764.02,27.673,764.02L27.673,764.02z"/>
		<path style="fill:#333333;" d="M27.673,702.928c2.477,0,4.484,1.42,4.484,3.174v54.242c0,1.754-2.008,3.176-4.484,3.176
			s-4.484-1.422-4.484-3.176v-54.242C23.188,704.348,25.196,702.928,27.673,702.928 M27.673,701.928
			c-3.075,0-5.484,1.833-5.484,4.174v54.242c0,2.342,2.409,4.176,5.484,4.176s5.484-1.834,5.484-4.176v-54.242
			C33.157,703.761,30.748,701.928,27.673,701.928L27.673,701.928z"/>
	</g>
</g>
<g id="logo_md">
	<text transform="matrix(1 0 0 1 65.9585 368.3428)" style="fill:#333333; font-family:'HouschkaPro-ExtraBold'; font-size:48;">STRONG</text>
	<text transform="matrix(1 0 0 1 69.439 428.3428)"><tspan x="0" y="0" style="fill:#333333; font-family:'HouschkaPro-ExtraBold'; font-size:48; letter-spacing:1;">L</tspan><tspan x="27.696" y="0" style="fill:#333333; font-family:'HouschkaPro-ExtraBold'; font-size:48;">IFTERS</tspan></text>
	<g>
		<rect y="377.223" style="fill:#333333;" width="333.035" height="8"/>
	</g>
	<g>
		<path style="fill:#333333;" d="M296.551,425.019c-3.024,0-5.484-2.46-5.484-5.484v-76.623c0-3.024,2.46-5.484,5.484-5.484
			s5.484,2.46,5.484,5.484v76.623C302.035,422.559,299.575,425.019,296.551,425.019L296.551,425.019z"/>
		<path style="fill:#333333;" d="M296.551,338.427c2.477,0,4.484,2.008,4.484,4.484v76.623c0,2.477-2.008,4.484-4.484,4.484
			s-4.484-2.008-4.484-4.484v-76.623C292.066,340.435,294.074,338.427,296.551,338.427 M296.551,336.427
			c-3.575,0-6.484,2.909-6.484,6.484v76.623c0,3.575,2.909,6.484,6.484,6.484s6.484-2.909,6.484-6.484v-76.623
			C303.035,339.336,300.126,336.427,296.551,336.427L296.551,336.427z"/>
	</g>
	<g>
		<rect x="43" y="371.223" style="fill:#333333;" width="9" height="20"/>
	</g>
	<g>
		<rect x="282.035" y="371.223" style="fill:#333333;" width="9" height="20"/>
	</g>
	<g>
		<path style="fill:#333333;" d="M309.551,412.02c-2.748,0-4.984-1.649-4.984-3.676v-54.242c0-2.025,2.236-3.674,4.984-3.674
			s4.984,1.648,4.984,3.674v54.242C314.535,410.37,312.299,412.02,309.551,412.02L309.551,412.02z"/>
		<path style="fill:#333333;" d="M309.551,350.928c2.477,0,4.484,1.42,4.484,3.174v54.242c0,1.754-2.008,3.176-4.484,3.176
			s-4.484-1.422-4.484-3.176v-54.242C305.066,352.348,307.074,350.928,309.551,350.928 M309.551,349.928
			c-3.075,0-5.484,1.833-5.484,4.174v54.242c0,2.342,2.409,4.176,5.484,4.176s5.484-1.834,5.484-4.176v-54.242
			C315.035,351.761,312.626,349.928,309.551,349.928L309.551,349.928z"/>
	</g>
	<g>
		<path style="fill:#333333;" d="M38.551,424.52c-2.748,0-4.984-2.236-4.984-4.984v-76.623c0-2.748,2.236-4.984,4.984-4.984
			s4.984,2.236,4.984,4.984v76.623C43.535,422.283,41.299,424.52,38.551,424.52L38.551,424.52z"/>
		<path style="fill:#333333;" d="M38.551,338.428c2.477,0,4.484,2.008,4.484,4.484v76.623c0,2.477-2.008,4.484-4.484,4.484
			s-4.484-2.008-4.484-4.484v-76.623C34.066,340.436,36.074,338.428,38.551,338.428 M38.551,337.428
			c-3.024,0-5.484,2.461-5.484,5.484v76.623c0,3.024,2.46,5.484,5.484,5.484s5.484-2.46,5.484-5.484v-76.623
			C44.035,339.889,41.575,337.428,38.551,337.428L38.551,337.428z"/>
	</g>
	<g>
		<path style="fill:#333333;" d="M26.551,412.02c-2.748,0-4.984-1.649-4.984-3.676v-54.242c0-2.025,2.236-3.674,4.984-3.674
			s4.984,1.648,4.984,3.674v54.242C31.535,410.37,29.299,412.02,26.551,412.02L26.551,412.02z"/>
		<path style="fill:#333333;" d="M26.551,350.928c2.477,0,4.484,1.42,4.484,3.174v54.242c0,1.754-2.008,3.176-4.484,3.176
			s-4.484-1.422-4.484-3.176v-54.242C22.066,352.348,24.074,350.928,26.551,350.928 M26.551,349.928
			c-3.075,0-5.484,1.833-5.484,4.174v54.242c0,2.342,2.409,4.176,5.484,4.176s5.484-1.834,5.484-4.176v-54.242
			C32.035,351.761,29.626,349.928,26.551,349.928L26.551,349.928z"/>
	</g>
</g>
<g id="logo_lg">
	<text transform="matrix(1 0 0 1 67.0806 96.3428)" style="fill:#333333; font-family:'HouschkaPro-ExtraBold'; font-size:48;">STRONG</text>
	<text transform="matrix(1 0 0 1 70.561 156.3428)"><tspan x="0" y="0" style="fill:#333333; font-family:'HouschkaPro-ExtraBold'; font-size:48; letter-spacing:1;">L</tspan><tspan x="27.696" y="0" style="fill:#333333; font-family:'HouschkaPro-ExtraBold'; font-size:48;">IFTERS</tspan></text>
	<text transform="matrix(1 0 0 1 140.8384 180.3428)" style="fill:#333333; font-family:'HouschkaPro-ExtraBold'; font-size:11;">EST. 2015</text>
	<g>
		<g>
			<polygon style="fill:#333333;" points="238.658,31.189 245.518,35.672 237.355,36.411 235.213,44.32 231.988,36.787 
				223.805,37.19 229.974,31.797 227.058,24.139 234.095,28.338 240.478,23.2 			"/>
		</g>
		<g>
			<polygon style="fill:#333333;" points="206.01,14.896 213.881,17.178 206.291,20.271 206.554,28.461 201.269,22.199 
				193.56,24.979 197.883,18.017 192.855,11.546 200.812,13.504 205.414,6.725 			"/>
		</g>
		<g>
			<polygon style="fill:#333333;" points="170.025,8.86 178.219,8.741 171.865,13.918 174.511,21.674 167.626,17.23 161.066,22.143 
				163.165,14.221 156.465,9.503 164.647,9.049 167.066,1.22 			"/>
		</g>
		<g>
			<polygon style="fill:#333333;" points="133.848,13.609 141.648,11.1 137.086,17.907 141.883,24.551 134,22.314 129.164,28.93 
				128.854,20.741 121.068,18.188 128.76,15.361 128.784,7.167 			"/>
		</g>
		<g>
			<polygon style="fill:#333333;" points="100.639,28.728 107.366,24.047 104.993,31.891 111.523,36.842 103.331,37.008 
				100.639,44.748 97.95,37.008 89.756,36.842 96.287,31.891 93.914,24.047 			"/>
		</g>
	</g>
	<g>
		<g>
			<polygon style="fill:#333333;" points="96.619,188.776 89.759,184.294 97.919,183.556 100.064,175.646 103.289,183.181 
				111.472,182.776 105.302,188.169 108.218,195.828 101.182,191.628 94.798,196.767 			"/>
		</g>
		<g>
			<polygon style="fill:#333333;" points="129.266,205.07 121.396,202.788 128.984,199.696 128.722,191.507 134.007,197.769 
				141.716,194.989 137.394,201.95 142.42,208.422 134.464,206.463 129.862,213.242 			"/>
		</g>
		<g>
			<polygon style="fill:#333333;" points="165.252,211.106 157.058,211.226 163.41,206.05 160.765,198.296 167.65,202.737 
				174.209,197.825 172.111,205.747 178.811,210.466 170.629,210.919 168.211,218.748 			"/>
		</g>
		<g>
			<polygon style="fill:#333333;" points="201.428,206.358 193.629,208.867 198.189,202.061 193.393,195.419 201.277,197.653 
				206.113,191.038 206.422,199.227 214.209,201.782 206.516,204.606 206.492,212.801 			"/>
		</g>
		<g>
			<polygon style="fill:#333333;" points="234.637,191.241 227.91,195.921 230.283,188.077 223.754,183.128 231.947,182.96 
				234.637,175.221 237.328,182.96 245.52,183.128 238.99,188.077 241.363,195.921 			"/>
		</g>
	</g>
	<g>
		<rect x="1.122" y="105.223" style="fill:#333333;" width="333.035" height="8"/>
	</g>
	<g>
		<path style="fill:#333333;" d="M297.673,153.019c-3.024,0-5.484-2.46-5.484-5.484V70.911c0-3.024,2.46-5.484,5.484-5.484
			s5.484,2.46,5.484,5.484v76.623C303.157,150.558,300.697,153.019,297.673,153.019L297.673,153.019z"/>
		<path style="fill:#333333;" d="M297.673,66.427c2.477,0,4.484,2.008,4.484,4.484v76.623c0,2.477-2.008,4.484-4.484,4.484
			s-4.484-2.008-4.484-4.484V70.911C293.188,68.435,295.196,66.427,297.673,66.427 M297.673,64.427
			c-3.575,0-6.484,2.909-6.484,6.484v76.623c0,3.576,2.909,6.484,6.484,6.484s6.484-2.909,6.484-6.484V70.911
			C304.157,67.335,301.248,64.427,297.673,64.427L297.673,64.427z"/>
	</g>
	<g>
		<rect x="44.122" y="99.223" style="fill:#333333;" width="9" height="20"/>
	</g>
	<g>
		<rect x="283.157" y="99.223" style="fill:#333333;" width="9" height="20"/>
	</g>
	<g>
		<path style="fill:#333333;" d="M310.673,140.02c-2.748,0-4.984-1.649-4.984-3.676V82.102c0-2.026,2.236-3.674,4.984-3.674
			s4.984,1.648,4.984,3.674v54.242C315.657,138.371,313.421,140.02,310.673,140.02L310.673,140.02z"/>
		<path style="fill:#333333;" d="M310.673,78.928c2.477,0,4.484,1.42,4.484,3.174v54.242c0,1.754-2.008,3.176-4.484,3.176
			s-4.484-1.422-4.484-3.176V82.102C306.188,80.348,308.196,78.928,310.673,78.928 M310.673,77.928
			c-3.075,0-5.484,1.833-5.484,4.174v54.242c0,2.342,2.409,4.176,5.484,4.176s5.484-1.834,5.484-4.176V82.102
			C316.157,79.761,313.748,77.928,310.673,77.928L310.673,77.928z"/>
	</g>
	<g>
		<path style="fill:#333333;" d="M39.673,152.52c-2.749,0-4.984-2.236-4.984-4.984V70.912c0-2.749,2.236-4.984,4.984-4.984
			s4.984,2.236,4.984,4.984v76.623C44.657,150.284,42.421,152.52,39.673,152.52L39.673,152.52z"/>
		<path style="fill:#333333;" d="M39.673,66.428c2.477,0,4.484,2.008,4.484,4.484v76.623c0,2.477-2.008,4.484-4.484,4.484
			s-4.484-2.008-4.484-4.484V70.912C35.188,68.436,37.196,66.428,39.673,66.428 M39.673,65.428c-3.024,0-5.484,2.46-5.484,5.484
			v76.623c0,3.024,2.46,5.484,5.484,5.484s5.484-2.46,5.484-5.484V70.912C45.157,67.888,42.697,65.428,39.673,65.428L39.673,65.428z
			"/>
	</g>
	<g>
		<path style="fill:#333333;" d="M27.673,140.02c-2.749,0-4.984-1.649-4.984-3.676V82.102c0-2.026,2.236-3.674,4.984-3.674
			s4.984,1.648,4.984,3.674v54.242C32.657,138.371,30.421,140.02,27.673,140.02L27.673,140.02z"/>
		<path style="fill:#333333;" d="M27.673,78.928c2.477,0,4.484,1.42,4.484,3.174v54.242c0,1.754-2.008,3.176-4.484,3.176
			s-4.484-1.422-4.484-3.176V82.102C23.188,80.348,25.196,78.928,27.673,78.928 M27.673,77.928c-3.075,0-5.484,1.833-5.484,4.174
			v54.242c0,2.342,2.409,4.176,5.484,4.176s5.484-1.834,5.484-4.176V82.102C33.157,79.761,30.748,77.928,27.673,77.928
			L27.673,77.928z"/>
	</g>
</g>
</svg>
