<?xml version="1.0" encoding="utf-8"?>
<!-- Generator: Adobe Illustrator 14.0.0, SVG Export Plug-In . SVG Version: 6.00 Build 43363)  -->
<!DOCTYPE svg PUBLIC "-//W3C//DTD SVG 1.1//EN" "http://www.w3.org/Graphics/SVG/1.1/DTD/svg11.dtd">
<svg version="1.1" id="Layer_1" xmlns="http://www.w3.org/2000/svg" xmlns:xlink="http://www.w3.org/1999/xlink" x="0px" y="0px"
	 width="337.157px" height="1004px" viewBox="0 0 337.157 1004" enable-background="new 0 0 337.157 1004" xml:space="preserve">
<g id="sm">
	<g id="grid" display="none">
		<g display="inline">
			<g>
				<g>
					<path fill="#333333" d="M340.125,1360.125H-0.125v-340.25h340.25V1360.125L340.125,1360.125z M0.125,1359.875h339.75v-339.75
						H0.125V1359.875L0.125,1359.875z"/>
				</g>
			</g>
			<g>
				<g>
					<path fill="#333333" d="M340.125,1020.125H-0.125v-340.25h340.25V1020.125L340.125,1020.125z M0.125,1019.875h339.75v-339.75
						H0.125V1019.875L0.125,1019.875z"/>
				</g>
			</g>
			<g>
				<g>
					<path fill="#333333" d="M340.125,680.125H-0.125v-340.25h340.25V680.125L340.125,680.125z M0.125,679.875h339.75v-339.75H0.125
						V679.875L0.125,679.875z"/>
				</g>
			</g>
			<g>
				<g>
					<path fill="#333333" d="M340.125,340.125H-0.125V-0.125h340.25V340.125L340.125,340.125z M0.125,339.875h339.75V0.125H0.125
						V339.875L0.125,339.875z"/>
				</g>
			</g>
		</g>
	</g>
	<g id="logo_sm">
		<g enable-background="new    ">
			<path fill="#333333" d="M56.798,727.526c-0.648-0.36-0.864-0.936-0.504-1.656l4.104-8.568c0.288-0.648,0.864-0.937,1.584-0.504
				c3.384,2.088,7.489,4.32,12.673,4.32c2.16,0,3.6-0.433,4.464-1.08c1.224-0.864,1.44-2.089,1.44-2.809
				c0-2.521-2.592-3.744-6.048-4.824c-3.745-1.225-8.641-2.305-12.313-4.969c-3.241-2.448-5.545-5.616-5.545-11.377
				c0-4.32,1.873-8.137,5.545-10.729c3.168-2.305,7.849-3.673,13.753-3.673c8.353,0,13.321,2.232,16.417,3.816
				c0.648,0.36,0.792,1.008,0.504,1.656l-4.104,8.568c-0.36,0.648-0.937,0.864-1.584,0.505c-3.168-1.729-7.128-3.601-11.953-3.601
				c-1.584,0-2.808,0.288-3.6,0.648c-1.08,0.575-1.584,1.367-1.584,2.231c0,2.232,2.448,3.24,5.833,4.249
				c4.032,1.224,9.433,2.304,13.249,5.256c3.168,2.376,5.329,5.833,5.329,11.233c0,4.896-2.16,8.784-5.617,11.521
				c-3.528,2.809-8.497,4.32-14.041,4.32C66.663,732.062,60.614,729.759,56.798,727.526z"/>
		</g>
		<g enable-background="new    ">
			<path fill="#333333" d="M71.811,757.307c0.72,0,1.296,0.576,1.296,1.296v36.507h18.938c0.72,0,1.296,0.576,1.296,1.297v8.641
				c0,0.72-0.576,1.296-1.296,1.296H61.73c-0.72,0-1.296-0.576-1.296-1.296v-46.444c0-0.72,0.576-1.296,1.296-1.296H71.811z"/>
		</g>
		<g>
			<g>
				<rect y="740.223" fill="#333333" width="150.035" height="8"/>
			</g>
		</g>
		<g>
			<g>
				<path fill="#333333" d="M113.551,788.019c-3.024,0-5.484-2.46-5.484-5.481v-76.623c0-3.024,2.46-5.484,5.484-5.484
					c3.024,0,5.484,2.46,5.484,5.484v76.623C119.035,785.559,116.575,788.019,113.551,788.019L113.551,788.019z"/>
			</g>
			<g>
				<path fill="#333333" d="M113.551,701.427c2.477,0,4.484,2.008,4.484,4.484v76.623c0,2.477-2.008,4.481-4.484,4.481
					c-2.476,0-4.484-2.008-4.484-4.481v-76.623C109.066,703.435,111.074,701.427,113.551,701.427 M113.551,699.427
					c-3.575,0-6.484,2.909-6.484,6.484v76.623c0,3.575,2.909,6.481,6.484,6.481c3.575,0,6.484-2.906,6.484-6.481v-76.623
					C120.035,702.336,117.126,699.427,113.551,699.427L113.551,699.427z"/>
			</g>
		</g>
		<g>
			<g>
				<rect x="40" y="734.223" fill="#333333" width="9" height="20"/>
			</g>
		</g>
		<g>
			<g>
				<rect x="99.035" y="734.223" fill="#333333" width="9" height="20"/>
			</g>
		</g>
		<g>
			<g>
				<path fill="#333333" d="M126.551,775.02c-2.749,0-4.984-1.646-4.984-3.676v-54.242c0-2.022,2.235-3.674,4.984-3.674
					s4.984,1.648,4.984,3.674v54.242C131.535,773.37,129.3,775.02,126.551,775.02L126.551,775.02z"/>
			</g>
			<g>
				<path fill="#333333" d="M126.551,713.928c2.477,0,4.484,1.42,4.484,3.174v54.242c0,1.754-2.008,3.176-4.484,3.176
					c-2.476,0-4.484-1.422-4.484-3.176v-54.242C122.066,715.348,124.074,713.928,126.551,713.928 M126.551,712.928
					c-3.075,0-5.484,1.833-5.484,4.174v54.242c0,2.342,2.409,4.176,5.484,4.176c3.075,0,5.484-1.834,5.484-4.176v-54.242
					C132.035,714.761,129.626,712.928,126.551,712.928L126.551,712.928z"/>
			</g>
		</g>
		<g>
			<g>
				<path fill="#333333" d="M35.551,787.52c-2.749,0-4.984-2.233-4.984-4.981v-76.623c0-2.748,2.235-4.984,4.984-4.984
					s4.984,2.236,4.984,4.984v76.623C40.535,785.283,38.3,787.52,35.551,787.52L35.551,787.52z"/>
			</g>
			<g>
				<path fill="#333333" d="M35.551,701.428c2.477,0,4.484,2.008,4.484,4.484v76.623c0,2.477-2.008,4.481-4.484,4.481
					c-2.476,0-4.484-2.008-4.484-4.481v-76.623C31.066,703.436,33.074,701.428,35.551,701.428 M35.551,700.428
					c-3.024,0-5.484,2.46-5.484,5.484v76.623c0,3.021,2.46,5.481,5.484,5.481c3.024,0,5.484-2.46,5.484-5.481v-76.623
					C41.035,702.888,38.575,700.428,35.551,700.428L35.551,700.428z"/>
			</g>
		</g>
		<g>
			<g>
				<path fill="#333333" d="M23.551,775.02c-2.749,0-4.984-1.646-4.984-3.676v-54.242c0-2.022,2.235-3.674,4.984-3.674
					s4.984,1.648,4.984,3.674v54.242C28.535,773.37,26.3,775.02,23.551,775.02L23.551,775.02z"/>
			</g>
			<g>
				<path fill="#333333" d="M23.551,713.928c2.477,0,4.484,1.42,4.484,3.174v54.242c0,1.754-2.008,3.176-4.484,3.176
					c-2.476,0-4.484-1.422-4.484-3.176v-54.242C19.066,715.348,21.074,713.928,23.551,713.928 M23.551,712.928
					c-3.075,0-5.484,1.833-5.484,4.174v54.242c0,2.342,2.409,4.176,5.484,4.176c3.075,0,5.484-1.834,5.484-4.176v-54.242
					C29.035,714.761,26.626,712.928,23.551,712.928L23.551,712.928z"/>
			</g>
		</g>
	</g>
</g>
<g id="md">
	<g id="logo_md">
		<g enable-background="new    ">
			<path fill="#333333" d="M67.639,371.799c-0.432-0.24-0.576-0.624-0.336-1.104l2.736-5.712c0.192-0.433,0.576-0.624,1.056-0.337
				c2.256,1.393,4.993,2.881,8.449,2.881c1.44,0,2.4-0.288,2.977-0.721c0.816-0.575,0.96-1.392,0.96-1.872
				c0-1.68-1.728-2.496-4.032-3.216c-2.496-0.816-5.761-1.536-8.209-3.312c-2.16-1.632-3.696-3.744-3.696-7.585
				c0-2.88,1.248-5.424,3.696-7.152c2.112-1.536,5.232-2.448,9.169-2.448c5.568,0,8.881,1.488,10.945,2.544
				c0.432,0.24,0.528,0.673,0.336,1.104l-2.736,5.713c-0.24,0.432-0.624,0.576-1.056,0.336c-2.112-1.152-4.752-2.4-7.969-2.4
				c-1.056,0-1.872,0.192-2.4,0.432c-0.72,0.385-1.056,0.912-1.056,1.488c0,1.488,1.632,2.16,3.889,2.832
				c2.688,0.816,6.289,1.536,8.833,3.505c2.112,1.584,3.552,3.888,3.552,7.488c0,3.265-1.44,5.856-3.744,7.681
				c-2.352,1.872-5.665,2.881-9.361,2.881C74.215,374.823,70.183,373.287,67.639,371.799z"/>
			<path fill="#333333" d="M122.505,341.652c0.48,0,0.864,0.384,0.864,0.863v5.761c0,0.48-0.384,0.864-0.864,0.864h-9.217v24.338
				c0,0.48-0.384,0.864-0.864,0.864h-6.721c-0.48,0-0.864-0.384-0.864-0.864v-24.338h-9.217c-0.48,0-0.864-0.384-0.864-0.864v-5.761
				c0-0.479,0.384-0.863,0.864-0.863H122.505z"/>
			<path fill="#333333" d="M148.904,362.102l6.241,10.753c0.384,0.672,0.48,1.488-0.48,1.488h-7.393
				c-0.768,0-1.248-0.144-1.632-0.864l-5.137-9.793h-5.136v9.793c0,0.48-0.384,0.864-0.864,0.864h-6.72
				c-0.48,0-0.864-0.384-0.864-0.864v-30.963c0-0.479,0.384-0.863,0.864-0.863h14.545c3.216,0,6.241,0.672,8.401,2.352
				c2.448,1.921,3.792,5.137,3.792,8.593c0,2.881-1.008,5.761-3.601,8.064C150.249,361.237,149.577,361.718,148.904,362.102z
				 M135.367,348.805v7.776h5.665c1.488,0,2.64-0.191,3.408-0.72c0.912-0.576,1.488-1.681,1.488-3.168
				c0-1.44-0.48-2.448-1.344-3.072c-0.768-0.576-1.824-0.816-2.832-0.816H135.367z"/>
			<path fill="#333333" d="M175.879,374.823c-9.504,0-17.713-6.625-17.713-16.754c0-10.225,8.208-16.85,17.713-16.85
				c9.457,0,17.666,6.625,17.666,16.85C193.545,368.342,185.336,374.823,175.879,374.823z M175.879,349.141
				c-5.088,0-8.736,3.744-8.736,8.929s3.648,8.881,8.736,8.881c5.089,0,8.689-3.696,8.689-8.881S180.968,349.141,175.879,349.141z"
				/>
			<path fill="#333333" d="M219.895,342.516c0-0.479,0.385-0.863,0.865-0.863h6.336c0.48,0,0.864,0.384,0.864,0.863v30.963
				c0,0.48-0.384,0.864-0.864,0.864h-5.856c-0.673,0-1.056-0.144-1.536-0.864l-13.249-17.713v17.713c0,0.48-0.384,0.864-0.864,0.864
				h-6.336c-0.48,0-0.865-0.384-0.865-0.864v-30.963c0-0.479,0.385-0.863,0.865-0.863h5.904c0.672,0,1.008,0.191,1.535,0.863
				l13.201,17.714V342.516z"/>
			<path fill="#333333" d="M260.36,343.332c0.527,0.288,0.527,0.72,0.336,1.104l-2.736,5.712c-0.24,0.433-0.625,0.528-1.057,0.336
				c-2.111-0.815-4.032-1.632-6.576-1.632c-4.896,0-8.736,3.889-8.736,9.121c0,5.28,3.359,9.312,8.736,9.312
				c2.256,0,4.465-0.576,5.856-1.248v-2.592h-4.993c-0.479,0-0.863-0.385-0.863-0.864v-5.761c0-0.48,0.384-0.864,0.863-0.864h12.146
				c0.479,0,0.864,0.384,0.864,0.864v16.657c0,0.48-0.385,0.864-0.864,0.864h-6.288c-0.48,0-0.816-0.336-0.864-0.768
				c-1.729,0.768-4.081,1.248-6.769,1.248c-9.409,0-16.609-5.857-16.609-16.85c0-9.649,7.92-16.754,17.762-16.754
				C255.079,341.22,258.103,342.228,260.36,343.332z"/>
		</g>
		<g enable-background="new    ">
			<path fill="#333333" d="M80.096,401.652c0.48,0,0.864,0.384,0.864,0.863v24.339h12.625c0.48,0,0.864,0.384,0.864,0.863v5.761
				c0,0.48-0.384,0.864-0.864,0.864H73.375c-0.48,0-0.864-0.384-0.864-0.864v-30.963c0-0.479,0.384-0.863,0.864-0.863H80.096z"/>
		</g>
		<g enable-background="new    ">
			<path fill="#333333" d="M107.792,401.652c0.48,0,0.864,0.384,0.864,0.863v30.963c0,0.48-0.384,0.864-0.864,0.864h-6.72
				c-0.48,0-0.864-0.384-0.864-0.864v-30.963c0-0.479,0.384-0.863,0.864-0.863H107.792z"/>
			<path fill="#333333" d="M123.247,433.479c0,0.48-0.384,0.864-0.864,0.864h-6.72c-0.48,0-0.864-0.384-0.864-0.864v-30.963
				c0-0.479,0.384-0.863,0.864-0.863h22.13c0.48,0,0.864,0.384,0.864,0.863v5.761c0,0.48-0.384,0.864-0.864,0.864h-14.545v4.992
				h12.481c0.48,0,0.864,0.384,0.864,0.864v5.761c0,0.479-0.384,0.864-0.864,0.864h-12.481V433.479z"/>
			<path fill="#333333" d="M170.528,401.652c0.479,0,0.863,0.384,0.863,0.863v5.761c0,0.48-0.384,0.864-0.863,0.864h-9.217v24.338
				c0,0.48-0.384,0.864-0.864,0.864h-6.721c-0.48,0-0.864-0.384-0.864-0.864v-24.338h-9.217c-0.48,0-0.864-0.384-0.864-0.864v-5.761
				c0-0.479,0.384-0.863,0.864-0.863H170.528z"/>
			<path fill="#333333" d="M199.328,401.652c0.479,0,0.864,0.384,0.864,0.863v5.761c0,0.48-0.385,0.864-0.864,0.864H183.39v4.992
				h13.394c0.479,0,0.863,0.384,0.863,0.864v5.761c0,0.479-0.384,0.864-0.863,0.864H183.39v5.232h15.938
				c0.479,0,0.864,0.384,0.864,0.863v5.761c0,0.48-0.385,0.864-0.864,0.864h-23.522c-0.48,0-0.863-0.384-0.863-0.864v-30.963
				c0-0.479,0.383-0.863,0.863-0.863H199.328z"/>
			<path fill="#333333" d="M227.119,422.102l6.241,10.753c0.383,0.672,0.479,1.488-0.48,1.488h-7.393
				c-0.768,0-1.248-0.144-1.633-0.864l-5.137-9.793h-5.136v9.793c0,0.48-0.384,0.864-0.864,0.864h-6.721
				c-0.48,0-0.863-0.384-0.863-0.864v-30.963c0-0.479,0.383-0.863,0.863-0.863h14.545c3.217,0,6.241,0.672,8.401,2.352
				c2.448,1.921,3.792,5.137,3.792,8.593c0,2.881-1.008,5.761-3.6,8.064C228.463,421.237,227.792,421.718,227.119,422.102z
				 M213.582,408.805v7.776h5.665c1.488,0,2.64-0.191,3.408-0.72c0.912-0.576,1.488-1.681,1.488-3.168
				c0-1.44-0.48-2.448-1.345-3.072c-0.769-0.576-1.824-0.816-2.832-0.816H213.582z"/>
			<path fill="#333333" d="M236.285,431.799c-0.433-0.24-0.576-0.624-0.336-1.104l2.736-5.712c0.192-0.433,0.575-0.624,1.056-0.337
				c2.256,1.393,4.992,2.881,8.449,2.881c1.439,0,2.4-0.288,2.977-0.721c0.815-0.575,0.959-1.392,0.959-1.872
				c0-1.68-1.728-2.496-4.031-3.216c-2.496-0.816-5.762-1.536-8.209-3.312c-2.16-1.632-3.697-3.744-3.697-7.585
				c0-2.88,1.248-5.424,3.697-7.152c2.111-1.536,5.232-2.448,9.168-2.448c5.568,0,8.881,1.488,10.945,2.544
				c0.432,0.24,0.528,0.673,0.336,1.104l-2.736,5.713c-0.24,0.432-0.623,0.576-1.056,0.336c-2.112-1.152-4.753-2.4-7.969-2.4
				c-1.056,0-1.872,0.192-2.4,0.432c-0.72,0.385-1.056,0.912-1.056,1.488c0,1.488,1.632,2.16,3.889,2.832
				c2.688,0.816,6.288,1.536,8.832,3.505c2.112,1.584,3.553,3.888,3.553,7.488c0,3.265-1.44,5.856-3.744,7.681
				c-2.353,1.872-5.665,2.881-9.361,2.881C242.862,434.823,238.829,433.287,236.285,431.799z"/>
		</g>
		<g>
			<g>
				<rect y="383.223" fill="#333333" width="336.036" height="8"/>
			</g>
		</g>
		<g>
			<g>
				<path fill="#333333" d="M296.551,431.019c-3.024,0-5.484-2.46-5.484-5.481v-76.623c0-3.024,2.46-5.484,5.484-5.484
					c3.023,0,5.484,2.46,5.484,5.484v76.623C302.036,428.559,299.575,431.019,296.551,431.019L296.551,431.019z"/>
			</g>
			<g>
				<path fill="#333333" d="M296.551,344.427c2.477,0,4.484,2.008,4.484,4.484v76.623c0,2.477-2.011,4.481-4.484,4.481
					c-2.477,0-4.484-2.008-4.484-4.481v-76.623C292.066,346.435,294.075,344.427,296.551,344.427 M296.551,342.427
					c-3.575,0-6.484,2.909-6.484,6.484v76.623c0,3.575,2.909,6.481,6.484,6.481c3.574,0,6.484-2.906,6.484-6.481v-76.623
					C303.036,345.336,300.125,342.427,296.551,342.427L296.551,342.427z"/>
			</g>
		</g>
		<g>
			<g>
				<rect x="43" y="377.223" fill="#333333" width="9" height="20"/>
			</g>
		</g>
		<g>
			<g>
				<rect x="282.036" y="377.223" fill="#333333" width="9" height="20"/>
			</g>
		</g>
		<g>
			<g>
				<path fill="#333333" d="M309.551,418.02c-2.748,0-4.984-1.646-4.984-3.676v-54.242c0-2.022,2.236-3.674,4.984-3.674
					s4.984,1.648,4.984,3.674v54.242C314.536,416.37,312.299,418.02,309.551,418.02L309.551,418.02z"/>
			</g>
			<g>
				<path fill="#333333" d="M309.551,356.928c2.477,0,4.484,1.42,4.484,3.174v54.242c0,1.754-2.011,3.176-4.484,3.176
					c-2.477,0-4.484-1.422-4.484-3.176v-54.242C305.066,358.348,307.075,356.928,309.551,356.928 M309.551,355.928
					c-3.075,0-5.484,1.833-5.484,4.174v54.242c0,2.342,2.409,4.176,5.484,4.176c3.074,0,5.484-1.834,5.484-4.176v-54.242
					C315.036,357.761,312.625,355.928,309.551,355.928L309.551,355.928z"/>
			</g>
		</g>
		<g>
			<g>
				<path fill="#333333" d="M38.551,430.52c-2.748,0-4.984-2.233-4.984-4.981v-76.623c0-2.748,2.236-4.984,4.984-4.984
					c2.748,0,4.984,2.236,4.984,4.984v76.623C43.535,428.283,41.299,430.52,38.551,430.52L38.551,430.52z"/>
			</g>
			<g>
				<path fill="#333333" d="M38.551,344.428c2.477,0,4.484,2.008,4.484,4.484v76.623c0,2.477-2.008,4.484-4.484,4.484
					c-2.476,0-4.484-2.011-4.484-4.484v-76.623C34.066,346.436,36.074,344.428,38.551,344.428 M38.551,343.428
					c-3.024,0-5.484,2.461-5.484,5.484v76.623c0,3.021,2.46,5.484,5.484,5.484c3.024,0,5.484-2.463,5.484-5.484v-76.623
					C44.035,345.889,41.575,343.428,38.551,343.428L38.551,343.428z"/>
			</g>
		</g>
		<g>
			<g>
				<path fill="#333333" d="M26.551,418.02c-2.748,0-4.984-1.646-4.984-3.676v-54.242c0-2.022,2.236-3.674,4.984-3.674
					c2.748,0,4.984,1.648,4.984,3.674v54.242C31.535,416.37,29.299,418.02,26.551,418.02L26.551,418.02z"/>
			</g>
			<g>
				<path fill="#333333" d="M26.551,356.928c2.477,0,4.484,1.42,4.484,3.174v54.242c0,1.754-2.008,3.176-4.484,3.176
					c-2.476,0-4.484-1.422-4.484-3.176v-54.242C22.066,358.348,24.074,356.928,26.551,356.928 M26.551,355.928
					c-3.075,0-5.484,1.833-5.484,4.174v54.242c0,2.342,2.409,4.176,5.484,4.176c3.075,0,5.484-1.834,5.484-4.176v-54.242
					C32.035,357.761,29.626,355.928,26.551,355.928L26.551,355.928z"/>
			</g>
		</g>
	</g>
</g>
<g id="lg">
	<g id="logo_lg">
		<g enable-background="new    ">
			<path fill="#333333" d="M68.761,93.799c-0.432-0.24-0.576-0.624-0.336-1.104l2.736-5.712c0.192-0.433,0.576-0.624,1.056-0.337
				c2.256,1.393,4.993,2.881,8.449,2.881c1.44,0,2.4-0.288,2.977-0.721c0.816-0.575,0.96-1.392,0.96-1.872
				c0-1.68-1.728-2.496-4.032-3.216c-2.496-0.816-5.761-1.536-8.209-3.312c-2.16-1.632-3.696-3.744-3.696-7.585
				c0-2.88,1.248-5.424,3.696-7.152c2.112-1.536,5.232-2.448,9.169-2.448c5.568,0,8.881,1.488,10.945,2.544
				c0.432,0.24,0.528,0.673,0.336,1.104l-2.736,5.713c-0.24,0.432-0.624,0.576-1.056,0.336c-2.112-1.152-4.752-2.4-7.969-2.4
				c-1.056,0-1.872,0.192-2.4,0.432c-0.72,0.385-1.056,0.912-1.056,1.488c0,1.488,1.632,2.16,3.889,2.832
				c2.688,0.816,6.289,1.536,8.833,3.505c2.112,1.584,3.552,3.888,3.552,7.488c0,3.265-1.44,5.856-3.744,7.681
				c-2.352,1.872-5.665,2.881-9.361,2.881C75.337,96.823,71.305,95.287,68.761,93.799z"/>
			<path fill="#333333" d="M123.627,63.652c0.48,0,0.864,0.384,0.864,0.863v5.761c0,0.48-0.384,0.864-0.864,0.864h-9.217v24.338
				c0,0.48-0.384,0.864-0.864,0.864h-6.721c-0.48,0-0.864-0.384-0.864-0.864V71.141h-9.217c-0.48,0-0.864-0.384-0.864-0.864v-5.761
				c0-0.479,0.384-0.863,0.864-0.863H123.627z"/>
			<path fill="#333333" d="M150.026,84.102l6.241,10.753c0.384,0.672,0.48,1.488-0.48,1.488h-7.393
				c-0.768,0-1.248-0.144-1.632-0.864l-5.137-9.793h-5.136v9.793c0,0.48-0.384,0.864-0.864,0.864h-6.72
				c-0.48,0-0.864-0.384-0.864-0.864V64.516c0-0.479,0.384-0.863,0.864-0.863h14.545c3.216,0,6.241,0.672,8.401,2.352
				c2.448,1.921,3.792,5.137,3.792,8.593c0,2.881-1.008,5.761-3.601,8.064C151.371,83.237,150.699,83.718,150.026,84.102z
				 M136.489,70.805v7.776h5.665c1.488,0,2.64-0.191,3.408-0.72c0.912-0.576,1.488-1.681,1.488-3.168c0-1.44-0.48-2.448-1.344-3.072
				c-0.768-0.576-1.824-0.816-2.832-0.816H136.489z"/>
			<path fill="#333333" d="M177.002,96.823c-9.505,0-17.714-6.625-17.714-16.754c0-10.225,8.208-16.85,17.714-16.85
				c9.456,0,17.665,6.625,17.665,16.85C194.667,90.342,186.458,96.823,177.002,96.823z M177.002,71.141
				c-5.089,0-8.737,3.744-8.737,8.929s3.648,8.881,8.737,8.881c5.088,0,8.688-3.696,8.688-8.881S182.09,71.141,177.002,71.141z"/>
			<path fill="#333333" d="M221.018,64.516c0-0.479,0.384-0.863,0.863-0.863h6.337c0.479,0,0.864,0.384,0.864,0.863v30.963
				c0,0.48-0.385,0.864-0.864,0.864h-5.856c-0.672,0-1.057-0.144-1.536-0.864l-13.249-17.713v17.713c0,0.48-0.385,0.864-0.864,0.864
				h-6.337c-0.479,0-0.863-0.384-0.863-0.864V64.516c0-0.479,0.384-0.863,0.863-0.863h5.904c0.672,0,1.009,0.191,1.537,0.863
				l13.201,17.714V64.516z"/>
			<path fill="#333333" d="M261.481,65.332c0.528,0.288,0.528,0.72,0.336,1.104l-2.736,5.712c-0.239,0.433-0.623,0.528-1.056,0.336
				c-2.112-0.815-4.032-1.632-6.576-1.632c-4.896,0-8.737,3.889-8.737,9.121c0,5.28,3.361,9.312,8.737,9.312
				c2.256,0,4.464-0.576,5.856-1.248v-2.592h-4.992c-0.48,0-0.864-0.385-0.864-0.864v-5.761c0-0.48,0.384-0.864,0.864-0.864h12.145
				c0.48,0,0.864,0.384,0.864,0.864v16.657c0,0.48-0.384,0.864-0.864,0.864h-6.289c-0.479,0-0.815-0.336-0.863-0.768
				c-1.729,0.768-4.08,1.248-6.769,1.248c-9.409,0-16.609-5.857-16.609-16.85c0-9.649,7.921-16.754,17.761-16.754
				C256.202,63.22,259.225,64.228,261.481,65.332z"/>
		</g>
		<g enable-background="new    ">
			<path fill="#333333" d="M81.218,123.652c0.48,0,0.864,0.384,0.864,0.863v24.339h12.625c0.48,0,0.864,0.384,0.864,0.863v5.761
				c0,0.48-0.384,0.864-0.864,0.864H74.498c-0.48,0-0.864-0.384-0.864-0.864v-30.963c0-0.479,0.384-0.863,0.864-0.863H81.218z"/>
		</g>
		<g enable-background="new    ">
			<path fill="#333333" d="M108.914,123.652c0.48,0,0.864,0.384,0.864,0.863v30.963c0,0.48-0.384,0.864-0.864,0.864h-6.72
				c-0.48,0-0.864-0.384-0.864-0.864v-30.963c0-0.479,0.384-0.863,0.864-0.863H108.914z"/>
			<path fill="#333333" d="M124.369,155.479c0,0.48-0.384,0.864-0.864,0.864h-6.72c-0.48,0-0.864-0.384-0.864-0.864v-30.963
				c0-0.479,0.384-0.863,0.864-0.863h22.13c0.48,0,0.864,0.384,0.864,0.863v5.761c0,0.48-0.384,0.864-0.864,0.864h-14.545v4.992
				h12.481c0.48,0,0.864,0.384,0.864,0.864v5.761c0,0.479-0.384,0.864-0.864,0.864h-12.481V155.479z"/>
			<path fill="#333333" d="M171.649,123.652c0.48,0,0.864,0.384,0.864,0.863v5.761c0,0.48-0.384,0.864-0.864,0.864h-9.216v24.338
				c0,0.48-0.384,0.864-0.864,0.864h-6.721c-0.48,0-0.864-0.384-0.864-0.864v-24.338h-9.217c-0.48,0-0.864-0.384-0.864-0.864v-5.761
				c0-0.479,0.384-0.863,0.864-0.863H171.649z"/>
			<path fill="#333333" d="M200.45,123.652c0.48,0,0.863,0.384,0.863,0.863v5.761c0,0.48-0.383,0.864-0.863,0.864h-15.938v4.992
				h13.393c0.48,0,0.865,0.384,0.865,0.864v5.761c0,0.479-0.385,0.864-0.865,0.864h-13.393v5.232h15.938
				c0.48,0,0.863,0.384,0.863,0.863v5.761c0,0.48-0.383,0.864-0.863,0.864h-23.521c-0.48,0-0.865-0.384-0.865-0.864v-30.963
				c0-0.479,0.385-0.863,0.865-0.863H200.45z"/>
			<path fill="#333333" d="M228.241,144.102l6.24,10.753c0.385,0.672,0.48,1.488-0.479,1.488h-7.394
				c-0.768,0-1.248-0.144-1.631-0.864l-5.137-9.793h-5.137v9.793c0,0.48-0.385,0.864-0.864,0.864h-6.72
				c-0.48,0-0.865-0.384-0.865-0.864v-30.963c0-0.479,0.385-0.863,0.865-0.863h14.545c3.216,0,6.24,0.672,8.4,2.352
				c2.448,1.921,3.793,5.137,3.793,8.593c0,2.881-1.009,5.761-3.602,8.064C229.584,143.237,228.913,143.718,228.241,144.102z
				 M214.704,130.805v7.776h5.664c1.488,0,2.641-0.191,3.408-0.72c0.912-0.576,1.488-1.681,1.488-3.168
				c0-1.44-0.479-2.448-1.344-3.072c-0.768-0.576-1.824-0.816-2.832-0.816H214.704z"/>
			<path fill="#333333" d="M237.407,153.799c-0.432-0.24-0.576-0.624-0.336-1.104l2.736-5.712c0.191-0.433,0.576-0.624,1.056-0.337
				c2.257,1.393,4.993,2.881,8.448,2.881c1.441,0,2.4-0.288,2.977-0.721c0.816-0.575,0.961-1.392,0.961-1.872
				c0-1.68-1.729-2.496-4.033-3.216c-2.496-0.816-5.76-1.536-8.209-3.312c-2.16-1.632-3.695-3.744-3.695-7.585
				c0-2.88,1.248-5.424,3.695-7.152c2.113-1.536,5.232-2.448,9.17-2.448c5.568,0,8.881,1.488,10.944,2.544
				c0.433,0.24,0.528,0.673,0.337,1.104l-2.736,5.713c-0.24,0.432-0.625,0.576-1.057,0.336c-2.112-1.152-4.752-2.4-7.969-2.4
				c-1.057,0-1.872,0.192-2.4,0.432c-0.72,0.385-1.057,0.912-1.057,1.488c0,1.488,1.633,2.16,3.889,2.832
				c2.688,0.816,6.289,1.536,8.833,3.505c2.112,1.584,3.552,3.888,3.552,7.488c0,3.265-1.439,5.856-3.744,7.681
				c-2.352,1.872-5.664,2.881-9.36,2.881C243.983,156.823,239.952,155.287,237.407,153.799z"/>
		</g>
		<g enable-background="new    ">
			<path fill="#333333" d="M147.131,172.851c0.11,0,0.198,0.088,0.198,0.198v1.32c0,0.109-0.088,0.198-0.198,0.198h-3.652v1.144
				h3.069c0.11,0,0.198,0.088,0.198,0.198v1.32c0,0.109-0.088,0.198-0.198,0.198h-3.069v1.199h3.652c0.11,0,0.198,0.088,0.198,0.197
				v1.32c0,0.11-0.088,0.198-0.198,0.198h-5.391c-0.11,0-0.198-0.088-0.198-0.198v-7.096c0-0.11,0.088-0.198,0.198-0.198H147.131z"
				/>
			<path fill="#333333" d="M148.143,179.76c-0.099-0.055-0.132-0.144-0.077-0.253l0.627-1.31c0.044-0.099,0.132-0.143,0.242-0.077
				c0.517,0.319,1.144,0.66,1.936,0.66c0.33,0,0.55-0.065,0.682-0.165c0.187-0.132,0.22-0.318,0.22-0.429
				c0-0.385-0.396-0.572-0.924-0.737c-0.572-0.187-1.32-0.352-1.881-0.759c-0.495-0.374-0.847-0.858-0.847-1.738
				c0-0.66,0.286-1.243,0.847-1.64c0.484-0.352,1.199-0.561,2.102-0.561c1.276,0,2.035,0.341,2.508,0.583
				c0.099,0.055,0.121,0.154,0.077,0.253l-0.627,1.31c-0.055,0.099-0.143,0.132-0.242,0.076c-0.484-0.264-1.089-0.55-1.826-0.55
				c-0.242,0-0.429,0.044-0.55,0.099c-0.165,0.089-0.242,0.21-0.242,0.342c0,0.341,0.374,0.495,0.891,0.648
				c0.616,0.188,1.441,0.353,2.024,0.804c0.484,0.363,0.814,0.891,0.814,1.716c0,0.748-0.33,1.343-0.858,1.761
				c-0.539,0.429-1.298,0.66-2.146,0.66C149.649,180.453,148.726,180.101,148.143,179.76z"/>
			<path fill="#333333" d="M160.716,172.851c0.11,0,0.198,0.088,0.198,0.198v1.32c0,0.109-0.088,0.198-0.198,0.198h-2.112v5.577
				c0,0.11-0.088,0.198-0.198,0.198h-1.541c-0.11,0-0.198-0.088-0.198-0.198v-5.577h-2.112c-0.11,0-0.198-0.089-0.198-0.198v-1.32
				c0-0.11,0.088-0.198,0.198-0.198H160.716z"/>
			<path fill="#333333" d="M161.672,180.453c-0.583,0-1.056-0.474-1.056-1.057c0-0.594,0.473-1.056,1.056-1.056
				c0.583,0,1.056,0.462,1.056,1.056C162.729,179.979,162.256,180.453,161.672,180.453z"/>
			<path fill="#333333" d="M171.715,178.671c0.111,0,0.199,0.088,0.199,0.197v1.276c0,0.11-0.088,0.198-0.199,0.198h-4.741
				c-0.11,0-0.198-0.088-0.198-0.198v-0.671c0-1.078,0.253-1.782,0.88-2.388c0.77-0.736,1.706-0.924,2.278-1.463
				c0.176-0.176,0.264-0.374,0.264-0.627c0-0.144-0.055-0.341-0.198-0.474c-0.12-0.109-0.297-0.176-0.583-0.176
				c-0.539,0-1.089,0.231-1.683,0.627c-0.11,0.066-0.242,0.1-0.308-0.044l-0.539-1.1c-0.055-0.1-0.033-0.177,0.077-0.253
				c0.627-0.407,1.419-0.825,2.618-0.825c0.792,0,1.452,0.286,1.882,0.748c0.352,0.374,0.55,0.88,0.55,1.441
				c0,0.671-0.242,1.243-0.693,1.693c-0.726,0.727-1.54,0.892-2.123,1.354c-0.242,0.188-0.341,0.396-0.341,0.683H171.715z"/>
			<path fill="#333333" d="M176.038,180.453c-1.858,0-2.871-1.32-2.871-3.851c0-2.542,1.013-3.862,2.871-3.862
				c1.859,0,2.872,1.32,2.872,3.862C178.91,179.133,177.897,180.453,176.038,180.453z M176.731,174.974
				c-0.154-0.308-0.373-0.462-0.693-0.462c-0.297,0-0.527,0.165-0.682,0.462c-0.188,0.353-0.285,0.913-0.285,1.629
				c0,0.726,0.088,1.275,0.274,1.628c0.153,0.297,0.374,0.451,0.692,0.451c0.309,0,0.539-0.154,0.693-0.451
				c0.176-0.353,0.254-0.892,0.254-1.628C176.985,175.876,176.907,175.326,176.731,174.974z"/>
			<path fill="#333333" d="M180.493,175.249c-0.176,0.055-0.264,0.022-0.264-0.209v-1.254c0-0.121,0.044-0.231,0.198-0.286
				l1.914-0.616c0.132-0.044,0.286-0.077,0.418-0.077h0.925c0.109,0,0.197,0.088,0.197,0.198v5.666h1.453
				c0.109,0,0.197,0.088,0.197,0.197v1.276c0,0.11-0.088,0.198-0.197,0.198h-4.951c-0.11,0-0.198-0.088-0.198-0.198v-1.276
				c0-0.109,0.088-0.197,0.198-0.197h1.562v-3.895L180.493,175.249z"/>
			<path fill="#333333" d="M187.028,173.049c0.01-0.11,0.088-0.198,0.197-0.198h3.972c0.11,0,0.198,0.088,0.198,0.198v1.276
				c0,0.109-0.088,0.197-0.198,0.197h-2.552l-0.066,0.869c0.066-0.032,0.209-0.055,0.363-0.076c0.121-0.022,0.252-0.033,0.373-0.033
				c0.914,0,1.574,0.274,1.98,0.781c0.353,0.429,0.528,1.034,0.528,1.771c0,0.737-0.241,1.343-0.66,1.794
				c-0.506,0.527-1.276,0.825-2.222,0.825c-1.002,0-1.64-0.242-2.189-0.605c-0.1-0.055-0.133-0.143-0.077-0.253l0.517-1.101
				c0.055-0.109,0.154-0.121,0.242-0.065c0.506,0.308,0.836,0.517,1.508,0.517c0.308,0,0.594-0.099,0.781-0.33
				c0.143-0.176,0.23-0.418,0.23-0.759c0-0.353-0.077-0.616-0.209-0.781c-0.165-0.198-0.396-0.286-0.704-0.286
				c-0.231,0-0.418,0.066-0.562,0.165c-0.164,0.1-0.275,0.242-0.363,0.396c-0.065,0.121-0.143,0.132-0.264,0.099l-0.891-0.176
				c-0.176-0.033-0.209-0.088-0.198-0.286L187.028,173.049z"/>
		</g>
		<g>
			<g>
				<g>
					<polygon fill="#333333" points="238.659,31.189 245.518,35.672 237.355,36.411 235.213,44.32 231.988,36.787 223.805,37.19 
						229.974,31.797 227.058,24.139 234.095,28.338 240.478,23.2 					"/>
				</g>
			</g>
			<g>
				<g>
					<polygon fill="#333333" points="206.01,14.896 213.881,17.178 206.292,20.271 206.554,28.461 201.269,22.199 193.56,24.979 
						197.883,18.017 192.855,11.546 200.812,13.504 205.415,6.725 					"/>
				</g>
			</g>
			<g>
				<g>
					<polygon fill="#333333" points="170.025,8.86 178.219,8.741 171.866,13.918 174.511,21.674 167.625,17.23 161.066,22.143 
						163.165,14.221 156.465,9.503 164.647,9.049 167.066,1.22 					"/>
				</g>
			</g>
			<g>
				<g>
					<polygon fill="#333333" points="133.848,13.609 141.648,11.1 137.086,17.907 141.883,24.551 134,22.314 129.164,28.93 
						128.854,20.741 121.068,18.188 128.76,15.361 128.784,7.167 					"/>
				</g>
			</g>
			<g>
				<g>
					<polygon fill="#333333" points="100.639,28.728 107.366,24.047 104.993,31.891 111.523,36.842 103.331,37.008 100.639,44.748 
						97.95,37.008 89.756,36.842 96.287,31.891 93.914,24.047 					"/>
				</g>
			</g>
		</g>
		<g>
			<g>
				<g>
					<polygon fill="#333333" points="96.619,188.776 89.759,184.294 97.919,183.556 100.064,175.646 103.289,183.181 
						111.472,182.776 105.302,188.169 108.218,195.828 101.182,191.628 94.798,196.767 					"/>
				</g>
			</g>
			<g>
				<g>
					<polygon fill="#333333" points="129.266,205.07 121.396,202.788 128.984,199.696 128.722,191.507 134.007,197.769 
						141.716,194.989 137.394,201.95 142.42,208.422 134.464,206.463 129.862,213.242 					"/>
				</g>
			</g>
			<g>
				<g>
					<polygon fill="#333333" points="165.252,211.106 157.058,211.226 163.41,206.05 160.765,198.296 167.65,202.737 
						174.209,197.825 172.111,205.747 178.811,210.466 170.629,210.919 168.211,218.748 					"/>
				</g>
			</g>
			<g>
				<g>
					<polygon fill="#333333" points="201.428,206.358 193.629,208.867 198.189,202.061 193.393,195.419 201.277,197.653 
						206.113,191.038 206.422,199.227 214.209,201.782 206.516,204.606 206.493,212.801 					"/>
				</g>
			</g>
			<g>
				<g>
					<polygon fill="#333333" points="234.637,191.241 227.911,195.921 230.284,188.077 223.754,183.128 231.947,182.96 
						234.637,175.221 237.329,182.96 245.52,183.128 238.991,188.077 241.363,195.921 					"/>
				</g>
			</g>
		</g>
		<g>
			<g>
				<rect y="105.223" fill="#333333" width="337.157" height="8"/>
			</g>
		</g>
		<g>
			<g>
				<path fill="#333333" d="M297.672,153.019c-3.023,0-5.483-2.46-5.483-5.484V70.911c0-3.024,2.46-5.484,5.483-5.484
					s5.484,2.46,5.484,5.484v76.623C303.157,150.558,300.697,153.019,297.672,153.019L297.672,153.019z"/>
			</g>
			<g>
				<path fill="#333333" d="M297.672,66.427c2.478,0,4.484,2.008,4.484,4.484v76.623c0,2.477-2.01,4.484-4.484,4.484
					c-2.478,0-4.483-2.008-4.483-4.484V70.911C293.188,68.435,295.196,66.427,297.672,66.427 M297.672,64.427
					c-3.574,0-6.483,2.909-6.483,6.484v76.623c0,3.576,2.909,6.484,6.483,6.484c3.576,0,6.484-2.909,6.484-6.484V70.911
					C304.157,67.335,301.249,64.427,297.672,64.427L297.672,64.427z"/>
			</g>
		</g>
		<g>
			<g>
				<rect x="44.122" y="99.223" fill="#333333" width="9" height="20"/>
			</g>
		</g>
		<g>
			<g>
				<rect x="283.157" y="99.223" fill="#333333" width="9" height="20"/>
			</g>
		</g>
		<g>
			<g>
				<path fill="#333333" d="M310.672,140.02c-2.748,0-4.983-1.649-4.983-3.676V82.102c0-2.026,2.235-3.674,4.983-3.674
					s4.984,1.648,4.984,3.674v54.242C315.657,138.371,313.42,140.02,310.672,140.02L310.672,140.02z"/>
			</g>
			<g>
				<path fill="#333333" d="M310.672,78.928c2.478,0,4.484,1.42,4.484,3.174v54.242c0,1.754-2.01,3.176-4.484,3.176
					c-2.478,0-4.483-1.422-4.483-3.176V82.102C306.188,80.348,308.196,78.928,310.672,78.928 M310.672,77.928
					c-3.074,0-5.483,1.833-5.483,4.174v54.242c0,2.342,2.409,4.176,5.483,4.176c3.076,0,5.484-1.834,5.484-4.176V82.102
					C316.157,79.761,313.749,77.928,310.672,77.928L310.672,77.928z"/>
			</g>
		</g>
		<g>
			<g>
				<path fill="#333333" d="M39.673,152.52c-2.749,0-4.984-2.236-4.984-4.984V70.912c0-2.749,2.236-4.984,4.984-4.984
					s4.984,2.236,4.984,4.984v76.623C44.657,150.284,42.421,152.52,39.673,152.52L39.673,152.52z"/>
			</g>
			<g>
				<path fill="#333333" d="M39.673,66.428c2.477,0,4.484,2.008,4.484,4.484v76.623c0,2.477-2.008,4.484-4.484,4.484
					s-4.484-2.008-4.484-4.484V70.912C35.188,68.436,37.196,66.428,39.673,66.428 M39.673,65.428c-3.024,0-5.484,2.46-5.484,5.484
					v76.623c0,3.024,2.46,5.484,5.484,5.484s5.484-2.46,5.484-5.484V70.912C45.157,67.888,42.697,65.428,39.673,65.428
					L39.673,65.428z"/>
			</g>
		</g>
		<g>
			<g>
				<path fill="#333333" d="M27.673,140.02c-2.749,0-4.984-1.649-4.984-3.676V82.102c0-2.026,2.236-3.674,4.984-3.674
					s4.984,1.648,4.984,3.674v54.242C32.657,138.371,30.421,140.02,27.673,140.02L27.673,140.02z"/>
			</g>
			<g>
				<path fill="#333333" d="M27.673,78.928c2.477,0,4.484,1.42,4.484,3.174v54.242c0,1.754-2.008,3.176-4.484,3.176
					s-4.484-1.422-4.484-3.176V82.102C23.188,80.348,25.196,78.928,27.673,78.928 M27.673,77.928c-3.075,0-5.484,1.833-5.484,4.174
					v54.242c0,2.342,2.409,4.176,5.484,4.176c3.075,0,5.484-1.834,5.484-4.176V82.102C33.157,79.761,30.748,77.928,27.673,77.928
					L27.673,77.928z"/>
			</g>
		</g>
	</g>
</g>
</svg>
